
<svg xmlns="http://www.w3.org/2000/svg">
    <defs>
        <symbol id="help">
            <path fill-rule="evenodd" clip-rule="evenodd"
                d="M12 3C7.02944 3 3 7.02944 3 12C3 16.9706 7.02944 21 12 21C16.9706 21 21 16.9706 21 12C21 7.02944 16.9706 3 12 3ZM1 12C1 5.92487 5.92487 1 12 1C18.0751 1 23 5.92487 23 12C23 18.0751 18.0751 23 12 23C5.92487 23 1 18.0751 1 12Z"
                fill="#212429" />
            <path fill-rule="evenodd" clip-rule="evenodd"
                d="M12.2582 8.02431C11.7927 7.94446 11.314 8.03194 10.9068 8.27126C10.4996 8.51057 10.1902 8.88628 10.0335 9.33184C9.85018 9.85282 9.27926 10.1266 8.75827 9.94333C8.23728 9.76005 7.96351 9.18914 8.14678 8.66815C8.46025 7.77704 9.07898 7.02562 9.89339 6.54699C10.7078 6.06836 11.6653 5.8934 12.5964 6.0531C13.5274 6.2128 14.3719 6.69685 14.9802 7.41952C15.5884 8.14204 15.9214 9.05647 15.9201 10.0009C15.9197 11.5313 14.7851 12.5419 13.9748 13.082C13.5392 13.3725 13.1107 13.586 12.795 13.7263C12.6358 13.7971 12.5016 13.8508 12.405 13.8876C12.3566 13.906 12.3174 13.9203 12.2888 13.9305L12.2541 13.9427L12.243 13.9464L12.2391 13.9477L12.2376 13.9483C12.2373 13.9484 12.2363 13.9487 11.9201 13L12.2363 13.9487C11.7124 14.1233 11.1461 13.8402 10.9714 13.3162C10.7969 12.7926 11.0796 12.2267 11.6028 12.0517L11.6016 12.0521C11.6017 12.0521 11.6018 12.052 11.6028 12.0517L11.6188 12.0461C11.6342 12.0406 11.6594 12.0314 11.693 12.0186C11.7605 11.9929 11.8607 11.9529 11.9827 11.8987C12.2296 11.789 12.551 11.6275 12.8654 11.4179C13.555 10.9582 13.9201 10.4691 13.9201 9.99999L13.9201 9.9985C13.9208 9.52618 13.7543 9.06886 13.4502 8.70752C13.146 8.34618 12.7238 8.10416 12.2582 8.02431Z"
                fill="#212429" />
            <path fill-rule="evenodd" clip-rule="evenodd"
                d="M12 15C12.5523 15 13 15.4477 13 16V16.5C13 17.0523 12.5523 17.5 12 17.5C11.4477 17.5 11 17.0523 11 16.5V16C11 15.4477 11.4477 15 12 15Z"
                fill="#212429" />
        </symbol>
        <symbol id="close">
            <path fill-rule="evenodd" clip-rule="evenodd"
                d="M18.7071 5.29289C19.0976 5.68342 19.0976 6.31658 18.7071 6.70711L6.70711 18.7071C6.31658 19.0976 5.68342 19.0976 5.29289 18.7071C4.90237 18.3166 4.90237 17.6834 5.29289 17.2929L17.2929 5.29289C17.6834 4.90237 18.3166 4.90237 18.7071 5.29289Z"
                fill="#212429" />
            <path fill-rule="evenodd" clip-rule="evenodd"
                d="M5.29289 5.29289C5.68342 4.90237 6.31658 4.90237 6.70711 5.29289L18.7071 17.2929C19.0976 17.6834 19.0976 18.3166 18.7071 18.7071C18.3166 19.0976 17.6834 19.0976 17.2929 18.7071L5.29289 6.70711C4.90237 6.31658 4.90237 5.68342 5.29289 5.29289Z"
                fill="#212429" />
        </symbol>
        <symbol id="arrowDown">
            <path fill-rule="evenodd" clip-rule="evenodd"
                d="M4.29289 8.29289C4.68342 7.90237 5.31658 7.90237 5.70711 8.29289L13 15.5858L20.2929 8.29289C20.6834 7.90237 21.3166 7.90237 21.7071 8.29289C22.0976 8.68342 22.0976 9.31658 21.7071 9.70711L13.7071 17.7071C13.3166 18.0976 12.6834 18.0976 12.2929 17.7071L4.29289 9.70711C3.90237 9.31658 3.90237 8.68342 4.29289 8.29289Z"
                fill="#212429" />
        </symbol>
        <symbol id="check">
            <path fill-rule="evenodd" clip-rule="evenodd" d="M20.7071 5.29289C21.0976 5.68342 21.0976 6.31658 20.7071 6.70711L9.70711 17.7071C9.31658 18.0976 8.68342 18.0976 8.29289 17.7071L3.29289 12.7071C2.90237 12.3166 2.90237 11.6834 3.29289 11.2929C3.68342 10.9024 4.31658 10.9024 4.70711 11.2929L9 15.5858L19.2929 5.29289C19.6834 4.90237 20.3166 4.90237 20.7071 5.29289Z" fill="white"/>
        </symbol>
        <symbol id="success">
            <path fill-rule="evenodd" clip-rule="evenodd" d="M15.663 3.77342C13.8902 2.98352 11.9096 2.78783 10.0166 3.21555C8.12351 3.64326 6.41942 4.67145 5.15845 6.14678C3.89749 7.62211 3.14721 9.46552 3.01951 11.4021C2.89181 13.3387 3.39354 15.2646 4.44987 16.8928C5.50619 18.5209 7.06051 19.764 8.88102 20.4365C10.7015 21.1091 12.6907 21.1752 14.5518 20.6249C16.413 20.0746 18.0464 18.9375 19.2084 17.3831C20.3705 15.8286 20.9989 13.9402 21 11.9994V11.08C21 10.5277 21.4477 10.08 22 10.08C22.5523 10.08 23 10.5277 23 11.08V12C22.9986 14.3721 22.2306 16.6807 20.8103 18.5806C19.39 20.4804 17.3936 21.8703 15.1189 22.5428C12.8442 23.2154 10.413 23.1346 8.18792 22.3126C5.96285 21.4906 4.06312 19.9713 2.77206 17.9813C1.48099 15.9914 0.86777 13.6374 1.02384 11.2705C1.17992 8.90358 2.09693 6.65052 3.63811 4.84734C5.17929 3.04416 7.26206 1.78748 9.57581 1.26472C11.8896 0.74196 14.3103 0.981129 16.477 1.94656C16.9815 2.17134 17.2082 2.76252 16.9834 3.26699C16.7587 3.77146 16.1675 3.9982 15.663 3.77342Z" fill="#4263EB"/>
            <path fill-rule="evenodd" clip-rule="evenodd" d="M22.7068 3.29254C23.0975 3.68287 23.0978 4.31603 22.7075 4.70675L12.7075 14.7168C12.52 14.9044 12.2656 15.0099 12.0002 15.01C11.7349 15.0101 11.4805 14.9047 11.2929 14.7171L8.29289 11.7171C7.90237 11.3266 7.90237 10.6934 8.29289 10.3029C8.68342 9.91237 9.31658 9.91237 9.70711 10.3029L11.9996 12.5954L21.2925 3.29325C21.6829 2.90253 22.316 2.90221 22.7068 3.29254Z" fill="#4263EB"/>
        </symbol>
        <symbol id="alert">
            <path d="M10.29 3.86001L1.82 18C1.64537 18.3024 1.55296 18.6453 1.55199 18.9945C1.55101 19.3437 1.64149 19.6871 1.81442 19.9905C1.98736 20.2939 2.23672 20.5468 2.53771 20.7239C2.83869 20.901 3.1808 20.9962 3.53 21H20.47C20.8192 20.9962 21.1613 20.901 21.4623 20.7239C21.7633 20.5468 22.0126 20.2939 22.1856 19.9905C22.3585 19.6871 22.449 19.3437 22.448 18.9945C22.447 18.6453 22.3546 18.3024 22.18 18L13.71 3.86001C13.5317 3.56611 13.2807 3.32313 12.9812 3.15449C12.6817 2.98585 12.3437 2.89726 12 2.89726C11.6563 2.89726 11.3183 2.98585 11.0188 3.15449C10.7193 3.32313 10.4683 3.56611 10.29 3.86001V3.86001Z" stroke="#F03D3E" stroke-width="2" stroke-linecap="round" stroke-linejoin="round"/>
            <path d="M12 9V13" stroke="#F03D3E" stroke-width="2" stroke-linecap="round" stroke-linejoin="round"/>
            <path d="M12 16V16.5" stroke="#F03D3E" stroke-width="2" stroke-linecap="round" stroke-linejoin="round"/>
        </symbol>
    </defs>
</svg>